<svg width="208" height="45" viewBox="0 0 208 45" fill="none" xmlns="http://www.w3.org/2000/svg">
<path fill-rule="evenodd" clip-rule="evenodd" d="M8.28527 0.949106C7.50049 -0.0984093 6.01512 -0.311396 4.96761 0.473387C3.92009 1.25817 3.7071 2.74354 4.49189 3.79106L12.2086 14.0912L10.4454 16.4447C10.2202 16.5919 10.0165 16.7802 9.84585 17.0079L0 30.15L9.84585 43.2921C10.6306 44.3396 12.116 44.5526 13.1635 43.7678C14.211 42.983 14.424 41.4976 13.6392 40.4501L5.92253 30.15L7.68576 27.7965C7.91091 27.6493 8.11465 27.461 8.28528 27.2333L18.1311 14.0912L8.28527 0.949106ZM16.4424 24.3913C16.2896 24.5953 16.1746 24.816 16.0962 25.0448L12.2715 30.15L22.1173 43.2921C22.9021 44.3396 24.3875 44.5526 25.435 43.7678C26.4825 42.983 26.6955 41.4976 25.9107 40.4501L18.194 30.15L25.9107 19.8499C26.0635 19.6459 26.1785 19.4252 26.2569 19.1964L30.0816 14.0912L20.2358 0.949106C19.451 -0.0984093 17.9656 -0.311396 16.9181 0.473387C15.8706 1.25817 15.6576 2.74354 16.4424 3.79106L24.1591 14.0912L16.4424 24.3913ZM32.5072 27.2333C32.3366 27.461 32.1329 27.6493 31.9077 27.7965L30.1445 30.15L37.8612 40.4501C38.646 41.4976 38.433 42.983 37.3855 43.7678C36.338 44.5526 34.8526 44.3396 34.0678 43.2921L24.222 30.15L34.0678 17.0079C34.2384 16.7802 34.4422 16.5919 34.6673 16.4447L36.4306 14.0912L28.7139 3.79106C27.9291 2.74354 28.1421 1.25817 29.1896 0.473387C30.2371 -0.311396 31.7225 -0.0984093 32.5072 0.949106L42.3531 14.0912L32.5072 27.2333ZM186.06 40.8054C188.253 42.081 190.764 42.7188 193.594 42.7188C196.424 42.7188 198.916 42.081 201.068 40.8054C203.261 39.5298 204.955 37.7959 206.151 35.6035C207.346 33.4111 207.944 30.9795 207.944 28.3088C207.944 25.6779 207.346 23.2663 206.151 21.0739C204.995 18.8815 203.32 17.1476 201.128 15.872C198.975 14.5964 196.464 13.9586 193.594 13.9586C190.724 13.9586 188.193 14.5964 186.001 15.872C183.808 17.1476 182.114 18.8815 180.918 21.0739C179.762 23.2663 179.184 25.6779 179.184 28.3088C179.184 30.9795 179.782 33.4111 180.978 35.6035C182.174 37.7959 183.868 39.5298 186.06 40.8054ZM199.215 34.886C197.899 36.6 196.085 37.457 193.774 37.457C191.462 37.457 189.568 36.6 188.093 34.886C186.618 33.1321 185.881 30.9795 185.881 28.4284C185.881 25.7975 186.559 23.6051 187.914 21.8512C189.309 20.0973 191.143 19.2204 193.415 19.2204C195.767 19.2204 197.66 20.1173 199.095 21.911C200.53 23.6649 201.248 25.8374 201.248 28.4284C201.248 31.0194 200.57 33.1719 199.215 34.886ZM159.729 14.6761H166.187V20.0575C166.825 18.2238 167.861 16.7489 169.296 15.6328C170.731 14.5167 172.365 13.9586 174.199 13.9586C175.475 13.9586 176.352 14.0782 176.83 14.3174L175.933 20.8348C175.574 20.5956 174.797 20.476 173.601 20.476C171.728 20.476 170.014 21.0739 168.459 22.2698C166.944 23.4656 166.187 25.379 166.187 28.0098V42.1208H159.729V14.6761ZM138.095 40.9848C140.288 42.1408 142.739 42.7188 145.45 42.7188C147.363 42.7188 149.097 42.4597 150.652 41.9415C152.246 41.3834 153.482 40.7656 154.359 40.0879L152.027 35.5437C151.389 36.022 150.472 36.4406 149.276 36.7993C148.12 37.1581 146.924 37.3375 145.689 37.3375C143.217 37.3375 141.284 36.5203 139.889 34.886C138.534 33.2516 137.856 30.9596 137.856 28.0098C137.856 25.4188 138.514 23.346 139.829 21.7914C141.184 20.2368 143.138 19.4595 145.689 19.4595C147.801 19.4595 149.695 20.2966 151.369 21.9708L154.239 16.7689C153.362 15.9716 152.146 15.3139 150.592 14.7957C149.077 14.2377 147.263 13.9586 145.151 13.9586C142.36 13.9586 139.889 14.5366 137.736 15.6926C135.624 16.8486 133.969 18.5029 132.774 20.6554C131.618 22.768 131.04 25.2395 131.04 28.0696C131.04 31.0593 131.677 33.6702 132.953 35.9024C134.229 38.0948 135.943 39.7889 138.095 40.9848ZM117.614 14.6761H124.311V42.1208H117.614V14.6761ZM120.903 9.534C119.667 9.534 118.631 9.11545 117.794 8.27836C116.957 7.44127 116.538 6.40487 116.538 5.16916C116.538 4.05303 116.957 3.09635 117.794 2.29912C118.631 1.50189 119.667 1.10327 120.903 1.10327C122.099 1.10327 123.115 1.50189 123.952 2.29912C124.789 3.09635 125.208 4.05303 125.208 5.16916C125.208 6.40487 124.789 7.44127 123.952 8.27836C123.155 9.11545 122.139 9.534 120.903 9.534ZM71.0557 14.6761H64.5981V42.1208H71.1155V28.4882C71.1155 26.8539 71.4743 25.3391 72.1918 23.944C72.9492 22.5089 73.9258 21.3729 75.1216 20.5358C76.3573 19.6987 77.6727 19.2802 79.0679 19.2802C80.6624 19.2802 81.8184 19.5791 82.5359 20.177C83.2534 20.775 83.6918 21.5921 83.8513 22.6285C84.0107 23.6649 84.0905 25.2395 84.0905 27.3521V42.1208H90.548V28.4882C90.548 25.7377 91.1858 23.5254 92.4614 21.8512C93.7768 20.1372 95.6902 19.2802 98.2015 19.2802C100.075 19.2802 101.331 19.9777 101.968 21.3729C102.646 22.768 102.985 25.08 102.985 28.3088V42.1208H109.502V28.3686C109.502 24.9804 109.243 22.2897 108.725 20.2966C108.247 18.2637 107.27 16.7091 105.795 15.6328C104.32 14.5167 102.148 13.9586 99.2777 13.9586C97.3245 13.9586 95.4709 14.417 93.717 15.3339C91.9631 16.2507 90.6477 17.4864 89.7707 19.041C88.6546 15.6926 85.6451 13.9985 80.7421 13.9586C78.5497 13.9586 76.5965 14.437 74.8824 15.3937C73.2083 16.3503 71.9327 17.7654 71.0557 19.6389V14.6761Z" fill="white"/>
</svg>
